<?xml version="1.0" standalone="no"?>
<!DOCTYPE svg PUBLIC "-//W3C//DTD SVG 20010904//EN"
 "http://www.w3.org/TR/2001/REC-SVG-20010904/DTD/svg10.dtd">
<svg version="1.0" xmlns="http://www.w3.org/2000/svg"
 width="2049.000000pt" height="2049.000000pt" viewBox="0 0 2049.000000 2049.000000"
 preserveAspectRatio="xMidYMid meet">
<metadata>
Created by potrace 1.14, written by Peter Selinger 2001-2017
</metadata>
<g transform="translate(0.000000,2049.000000) scale(0.100000,-0.100000)"
fill="#000000" stroke="none">
<path d="M3308 12810 c-136 -42 -224 -128 -241 -236 -7 -43 24 -129 59 -165
16 -17 94 -83 173 -147 80 -65 154 -125 165 -134 27 -23 212 -173 254 -207 18
-14 43 -34 55 -45 12 -10 59 -48 105 -84 45 -36 80 -68 77 -71 -4 -3 -569 -6
-1258 -7 -689 -1 -1274 -4 -1300 -8 -208 -29 -378 -191 -378 -361 0 -128 106
-233 256 -253 33 -4 344 -7 691 -7 l632 2 -29 -24 c-15 -13 -92 -73 -171 -134
-79 -60 -150 -115 -158 -122 -9 -6 -42 -32 -75 -57 -33 -24 -66 -50 -75 -57
-16 -13 -160 -124 -310 -238 -51 -38 -109 -83 -130 -100 -20 -16 -52 -41 -70
-55 -32 -24 -121 -92 -725 -555 -137 -105 -288 -220 -335 -256 -47 -35 -87
-66 -90 -69 -3 -3 -25 -21 -50 -39 -174 -132 -259 -275 -258 -436 1 -137 63
-237 185 -297 62 -30 75 -33 163 -33 92 1 109 3 175 23 68 21 200 105 280 179
11 10 74 62 140 115 66 53 129 105 140 115 11 10 54 45 95 77 41 33 77 63 80
66 3 3 64 52 135 110 72 57 132 107 135 110 3 3 55 46 115 95 61 49 146 119
190 155 114 94 108 93 101 24 -10 -81 -10 -200 -2 -254 4 -25 10 -58 12 -75
29 -185 138 -456 259 -646 110 -172 288 -370 445 -495 305 -242 710 -418 1080
-469 25 -3 56 -8 70 -10 100 -17 401 -23 510 -10 345 38 594 111 866 250 264
136 518 341 686 555 33 41 65 82 71 90 54 68 168 270 212 375 44 106 96 273
110 354 3 19 7 37 9 40 2 3 7 31 10 61 4 30 9 69 11 85 7 46 7 325 0 370 -45
300 -94 459 -202 665 -158 298 -328 491 -658 746 -49 38 -97 74 -105 81 -8 6
-87 67 -175 134 -88 68 -236 182 -330 254 -93 72 -226 174 -295 225 -69 52
-127 97 -130 100 -3 3 -43 34 -90 70 -47 36 -92 70 -100 77 -74 59 -637 487
-666 507 -92 60 -236 79 -346 46z"/>
<path d="M6780 11020 c0 -88 -1 -432 -1 -765 0 -333 1 -780 1 -995 l0 -390
268 0 268 0 -1 75 c-1 41 0 75 2 75 1 0 31 -22 66 -49 139 -104 291 -151 507
-156 452 -10 802 191 948 545 75 183 87 421 32 620 -68 242 -231 431 -467 540
-151 70 -347 106 -533 97 -63 -3 -126 -8 -140 -11 -14 -3 -38 -8 -55 -12 -37
-7 -98 -27 -150 -49 -46 -20 -165 -96 -165 -106 0 -4 -10 -13 -23 -22 l-22
-14 0 314 c0 173 -2 319 -5 323 -5 8 -278 83 -345 96 -11 2 -51 13 -90 24 -38
11 -76 20 -82 20 -10 0 -13 -39 -13 -160z m1120 -824 c268 -26 437 -226 426
-506 -9 -213 -108 -363 -283 -430 -75 -28 -98 -32 -204 -36 -250 -8 -443 118
-499 326 -20 73 -21 81 -21 162 -3 236 125 412 340 468 48 13 160 28 176 24 6
-2 35 -5 65 -8z"/>
<path d="M16065 11169 c-16 -5 -39 -11 -50 -13 -11 -2 -109 -27 -217 -55 -109
-28 -200 -51 -203 -51 -3 0 -5 -147 -5 -326 l0 -326 -44 39 c-146 127 -333
184 -591 178 -442 -9 -760 -208 -900 -564 -13 -33 -21 -61 -19 -61 3 0 0 -8
-5 -17 -9 -17 -16 -55 -27 -133 -22 -162 8 -370 73 -509 26 -56 85 -153 106
-177 171 -187 331 -276 582 -325 89 -17 350 -17 430 0 146 32 248 78 337 152
50 42 60 46 57 27 -1 -7 -1 -41 0 -75 l1 -63 268 0 267 0 0 1155 c0 1020 -2
1155 -15 1154 -8 0 -28 -5 -45 -10z m-900 -973 c64 -7 104 -20 181 -57 152
-73 238 -226 238 -422 0 -112 -16 -181 -61 -261 -46 -82 -93 -128 -172 -170
-90 -47 -161 -63 -271 -63 -161 0 -290 48 -377 140 -84 88 -121 184 -127 325
-6 149 47 297 137 383 46 44 162 105 217 115 47 9 163 20 175 18 6 -2 33 -5
60 -8z"/>
<path d="M9040 10961 c-1 -109 -1 -2015 0 -2058 l0 -33 265 0 265 0 0 1088 0
1088 -265 0 -265 0 0 -85z"/>
<path d="M20070 10958 c-121 -65 -148 -229 -54 -324 134 -134 355 -43 354 145
-1 62 -36 129 -88 166 -60 41 -148 47 -212 13z m145 -19 c77 -22 134 -111 120
-191 -14 -78 -94 -148 -170 -148 -36 0 -104 30 -127 56 -26 30 -49 90 -46 127
2 46 33 102 70 130 49 37 88 44 153 26z"/>
<path d="M20084 10778 l1 -123 26 -3 c25 -3 26 -1 25 46 -3 64 16 64 51 0 22
-40 31 -48 55 -48 l29 0 -31 55 -31 54 21 21 c27 27 23 76 -9 101 -17 14 -40
19 -81 19 l-57 0 1 -122z m103 70 c14 -24 11 -38 -10 -53 -19 -14 -23 -14 -33
-1 -8 12 -11 45 -5 64 3 8 41 0 48 -10z"/>
<path d="M10579 10656 c-2 -2 -26 -6 -54 -10 -217 -26 -439 -129 -575 -266
-73 -73 -112 -130 -160 -234 -34 -71 -45 -106 -66 -201 -34 -158 -17 -419 38
-553 55 -135 101 -207 192 -298 91 -91 174 -144 321 -204 42 -18 125 -41 205
-57 87 -17 341 -23 450 -10 251 31 464 128 618 284 56 57 69 83 42 83 -5 0
-34 16 -64 35 -30 19 -57 35 -60 35 -3 0 -34 17 -68 38 -35 21 -70 42 -78 46
-8 4 -24 12 -35 19 -79 47 -114 67 -120 67 -3 0 -9 -10 -14 -22 -58 -149 -279
-248 -481 -217 -76 12 -80 13 -120 29 -128 51 -222 181 -236 326 l-6 51 714 1
c392 0 725 1 739 1 27 1 27 1 23 69 -6 104 -14 207 -19 233 -14 71 -18 89 -37
149 -71 222 -214 392 -416 494 -62 32 -213 82 -269 91 -21 3 -50 8 -63 11 -27
7 -394 16 -401 10z m317 -371 c115 -30 212 -103 254 -192 21 -45 42 -125 34
-132 -5 -6 -822 -8 -846 -3 -9 2 -15 9 -13 15 3 7 6 24 9 39 14 82 84 179 164
225 100 59 275 80 398 48z"/>
<path d="M17006 10634 c-320 -66 -548 -233 -666 -487 -93 -200 -108 -485 -39
-714 22 -72 93 -214 131 -260 154 -189 398 -317 668 -349 89 -10 294 -12 355
-2 28 4 66 9 85 12 136 16 293 76 424 160 52 34 196 165 196 179 0 8 -439 261
-444 255 -2 -1 -11 -18 -20 -36 -23 -45 -107 -127 -154 -151 -69 -35 -154 -54
-242 -54 -246 1 -406 134 -435 365 l-7 47 724 0 c398 0 730 0 740 1 14 0 16
12 13 99 -5 140 -12 194 -40 298 -72 274 -229 460 -480 570 -60 26 -148 52
-270 79 -16 4 -118 8 -225 9 -175 3 -207 1 -314 -21z m488 -362 c81 -30 160
-92 195 -154 30 -52 58 -144 48 -155 -3 -3 -198 -6 -432 -7 l-427 -1 7 45 c20
133 120 238 269 282 86 25 258 20 340 -10z"/>
<path d="M19459 10656 c-2 -2 -22 -7 -43 -10 -103 -16 -232 -92 -338 -198 -37
-38 -70 -68 -72 -68 -3 0 -4 19 -3 43 l2 42 -267 2 -268 3 0 -38 c-1 -45 -1
-1376 0 -1484 l0 -78 268 0 267 0 1 443 c0 426 1 445 23 522 12 44 34 101 49
128 55 101 163 184 285 217 27 7 106 13 181 14 l134 1 0 223 c0 122 -4 224 -8
227 -10 6 -206 16 -211 11z"/>
<path d="M12915 10615 c-158 -40 -282 -107 -404 -221 l-61 -56 0 66 0 65 -267
-2 -268 -2 0 -798 0 -797 268 0 267 0 1 438 c1 480 1 498 29 592 58 197 233
311 479 311 217 0 308 -77 356 -301 5 -19 9 -255 11 -525 2 -269 3 -496 3
-502 1 -10 61 -13 269 -13 l267 0 -1 537 c-1 750 -6 799 -102 951 -88 142
-263 242 -476 273 -116 16 -270 10 -371 -16z"/>
</g>
</svg>
